
<svg width="454px" height="454px" viewBox="0 0 454 454" version="1.1" xmlns="http://www.w3.org/2000/svg" xmlns:xlink="http://www.w3.org/1999/xlink">
    <defs>
        <polygon id="path-1" points="0.1828 0.457 453.543 0.457 453.543 453.9997 0.1828 453.9997"></polygon>
    </defs>
    <g id="Absa_Logo_Primary_Identity_RGB_Passion" stroke="none" stroke-width="1" fill="none" fill-rule="evenodd">
        <g transform="translate(0.000000, -1.000000)">
            <g id="Group-3" transform="translate(0.000000, 0.543000)">
                <mask id="mask-2" fill="white">
                    <use xlink:href="#path-1"></use>
                </mask>
                <g id="Clip-2"></g>
                <path d="M432.5188,131.3487 C396.3938,54.0297 317.9308,0.4567 226.9538,0.4567 C135.9778,0.4567 57.5148,54.0297 21.3898,131.3487 L47.0848,143.3337 C78.6948,75.6797 147.3498,28.8027 226.9538,28.8027 C306.5588,28.8027 375.2138,75.6797 406.8228,143.3337 L432.5188,131.3487 Z M40.4538,159.3247 L13.8108,149.6237 C4.9938,173.8337 0.1828,199.9687 0.1828,227.2287 C0.1828,254.4877 4.9938,280.6227 13.8108,304.8327 L40.4538,295.1327 C32.7388,273.9487 28.5288,251.0807 28.5288,227.2287 C28.5288,203.3767 32.7388,180.5087 40.4538,159.3247 Z M21.3898,323.1077 C57.5148,400.4277 135.9778,453.9997 226.9538,453.9997 C317.9308,453.9997 396.3938,400.4277 432.5188,323.1077 L406.8228,311.1227 C375.2138,378.7777 306.5588,425.6537 226.9538,425.6537 C147.3498,425.6537 78.6948,378.7777 47.0848,311.1227 L21.3898,323.1077 Z M413.4548,159.3247 C421.1688,180.5087 425.3798,203.3767 425.3798,227.2287 C425.3798,251.0807 421.1688,273.9487 413.4548,295.1327 L440.0968,304.8327 C448.9138,280.6227 453.7258,254.4877 453.7258,227.2287 C453.7258,199.9687 448.9138,173.8337 440.0968,149.6237 L413.4548,159.3247 Z" id="Fill-1" fill="#DC0032" mask="url(#mask-2)"></path>
            </g>
            <path d="M187.2703,182.417 C181.6133,182.417 175.5293,183.42 170.2613,184.547 L170.2613,137.063 L146.5553,139.64 L146.5553,267.113 C156.3473,270.205 169.0603,273.126 181.6013,273.126 C210.1183,273.126 226.9543,263.505 226.9543,227.771 C226.9543,192.038 210.1183,182.417 187.2703,182.417 M183.4913,252.854 C179.1963,252.854 175.4153,252.338 170.2613,251.136 L170.2613,204.437 C174.5273,203.456 178.7543,202.689 183.4913,202.689 C196.3753,202.689 202.5593,208.53 202.5593,227.771 C202.5593,247.013 196.3753,252.854 183.4913,252.854" id="Fill-4" fill="#DC0032"></path>
            <path d="M278.9478,217.2917 C268.8118,217.1197 262.4558,216.9477 262.4558,211.4507 C262.4558,204.2347 266.7498,202.6887 279.8068,202.6887 C287.7088,202.6887 298.8758,204.2347 305.9188,205.9527 L304.0288,186.3687 C294.9238,183.6197 284.7888,182.4167 278.0888,182.4167 C249.5708,182.4167 238.5758,192.7247 238.5758,212.1377 C238.5758,230.8637 250.0858,235.6737 269.4988,236.0177 C282.0398,236.1897 288.5678,235.8457 288.5678,244.0917 C288.5678,251.3077 282.8988,252.8537 270.7018,252.8537 C257.1298,252.8537 247.5098,250.7917 240.4658,248.5587 L242.3558,268.1437 C251.4608,271.4077 260.0508,273.1257 272.5908,273.1257 C302.9988,273.1257 312.4468,262.8177 312.4468,244.2637 C312.4468,220.8997 297.1578,217.6357 278.9478,217.2917" id="Fill-6" fill="#DC0032"></path>
            <path d="M92.0928,182.417 C84.5338,182.417 74.3978,183.62 65.2928,186.368 L63.4038,205.953 C70.9628,204.235 82.1288,202.689 89.5158,202.689 C101.8848,202.689 106.8668,203.72 106.8668,213.684 L106.8668,216.433 L90.3748,217.292 C72.1648,218.322 56.8758,221.415 56.8758,244.264 C56.8758,262.818 66.3238,273.126 94.8418,273.126 C108.0698,273.126 120.7818,270.205 130.5748,267.113 L130.5748,212.138 C130.5748,192.725 119.7518,182.417 92.0928,182.417 Z M106.8668,252.167 C103.7748,252.682 99.6518,253.369 95.3568,253.369 C85.0498,253.369 80.7548,250.105 80.7548,243.061 C80.7548,235.674 84.8768,234.471 93.4678,233.956 L106.8668,233.097 L106.8668,252.167 Z" id="Fill-8" fill="#DC0032"></path>
            <path d="M358.5513,182.417 C350.9923,182.417 340.8563,183.62 331.7513,186.368 L329.8623,205.953 C337.4213,204.235 348.5873,202.689 355.9743,202.689 C368.3433,202.689 373.3253,203.72 373.3253,213.684 L373.3253,216.433 L356.8333,217.292 C338.6233,218.322 323.3343,220.899 323.3343,244.264 C323.3343,262.818 332.7823,273.126 361.3003,273.126 C374.5283,273.126 387.2403,270.205 397.0333,267.113 L397.0333,212.138 C397.0333,192.725 386.2103,182.417 358.5513,182.417 Z M373.3253,252.167 C370.2333,252.682 366.1103,253.369 361.8153,253.369 C351.5083,253.369 347.2133,250.105 347.2133,243.061 C347.2133,235.674 351.3363,234.471 359.9263,233.956 L373.3253,233.097 L373.3253,252.167 Z" id="Fill-10" fill="#DC0032"></path>
        </g>
    </g>
</svg>